PathFileType	4	(X/Y/Z)	./resultDataOpenSim/trcMotMarkerGrf/sub10/qtm-03-02.trc
DataRate	CameraRate	NumFrames	NumMarkers	Units	OrigDataRate	OrigDataStartFrame	OrigNumFrames
250.000000	250.000000	10	24	m	250.000000	301	481
Frame#	Time	L.Toe.Tip			R.Toe.Tip			L.Ankle.Lat			R.Ankle.Lat			L.Ankle.Med			R.Ankle.Med			L.Heel			R.Heel			L.Knee.Lat			R.Knee.Lat			L.Knee.Med			R.Knee.Med			L.Thigh.Upper			R.Thigh.Upper			L.ASIS			R.ASIS			V.Sacral			L.Acromium			R.Acromium			C7			L.Elbow			R.Elbow			L.Wrist.Lat			R.Wrist.Lat
		X1	Y1	Z1	X2	Y2	Z2	X3	Y3	Z3	X4	Y4	Z4	X5	Y5	Z5	X6	Y6	Z6	X7	Y7	Z7	X8	Y8	Z8	X9	Y9	Z9	X10	Y10	Z10	X11	Y11	Z11	X12	Y12	Z12	X13	Y13	Z13	X14	Y14	Z14	X15	Y15	Z15	X16	Y16	Z16	X17	Y17	Z17	X18	Y18	Z18	X19	Y19	Z19	X20	Y20	Z20	X21	Y21	Z21	X22	Y22	Z22	X23	Y23	Z23	X24	Y24	Z24

301	1.2	-0.011957092	-0.0075823171	-0.067326478	0.70067361	0.041909158	-0.011584851	-0.121069	0.071923081	-0.097581223	0.56943686	0.056738352	0.052399493	-0.097006319	0.093032164	-0.019138769	0.57038129	0.082704144	-0.034238975	-0.18599631	0.078045603	-0.049114162	0.51174156	0.030154563	0.016504897	0.087238115	0.39932959	-0.14792833	0.54318019	0.4537849	0.071027935	0.10851635	0.37032707	-0.030468226	0.52656577	0.45829551	-0.056138137	0.21363385	0.76679432	-0.20683783	0.36027944	0.8116494	0.15240574	0.30370264	0.86221499	-0.18198251	0.38586116	0.890785	0.055798753	0.16108157	0.89094719	0.010856008	0.31960295	1.3404993	-0.20361565	0.31853056	1.3343247	0.1216198	0.23482247	1.3775783	-0.047038895	0.32200119	0.98989194	-0.254459	0.12370767	1.0472958	0.13383282	0.56089207	0.92880149	-0.20983053	0.11142669	0.82354996	0.21881328
302	1.204	-0.011447149	-0.0075249213	-0.067633933	0.70156249	0.041376774	-0.011829576	-0.11859873	0.074317326	-0.099064066	0.57027751	0.056735602	0.052292535	-0.09416054	0.095109215	-0.020711952	0.57104456	0.082616455	-0.034474065	-0.18308585	0.081806731	-0.050513022	0.51227771	0.030363166	0.016694324	0.093269877	0.39971706	-0.1489122	0.54902254	0.45446265	0.069469543	0.11389677	0.37039237	-0.030947661	0.53351234	0.45992822	-0.05753656	0.21962002	0.76647039	-0.20611693	0.36614784	0.81303411	0.15286346	0.31059286	0.86200963	-0.18160004	0.39228372	0.89191587	0.056161357	0.16729118	0.89150195	0.010511161	0.32567372	1.3413042	-0.20319875	0.32558034	1.3346181	0.12194584	0.24126328	1.3779316	-0.046365309	0.32764615	0.99069955	-0.254013	0.131435	1.0472859	0.13402362	0.56615976	0.92868876	-0.20874558	0.11911498	0.82351085	0.21902395
303	1.208	-0.010875807	-0.0074678837	-0.06797006	0.70250295	0.040804885	-0.012132984	-0.11596382	0.076805598	-0.10053362	0.57106869	0.0567156	0.052092898	-0.091041591	0.097199445	-0.022340718	0.57171374	0.082432032	-0.034823512	-0.17991428	0.08567696	-0.051882655	0.51273934	0.03051781	0.016796703	0.099545193	0.4001361	-0.14984138	0.55457475	0.45504466	0.067996462	0.11946832	0.37033326	-0.031350567	0.53992315	0.46153694	-0.058789635	0.22569236	0.76618044	-0.20541844	0.37205875	0.81430935	0.15329667	0.31763296	0.86184914	-0.18114101	0.39872183	0.89315135	0.056525877	0.17376809	0.89189779	0.0099275582	0.33177595	1.3421714	-0.20271313	0.33261053	1.3350295	0.1222923	0.24766153	1.3783724	-0.045677906	0.33325245	0.99161733	-0.25358876	0.13916463	1.0473567	0.13438482	0.57132013	0.92852245	-0.20769114	0.12692314	0.82352299	0.21926775
304	1.212	-0.010196909	-0.007393031	-0.068312645	0.70336119	0.040285467	-0.012478009	-0.11310709	0.079383167	-0.10200704	0.57163361	0.056716119	0.051763703	-0.087595814	0.099305891	-0.024023128	0.57229397	0.082146384	-0.035296805	-0.17641187	0.089678046	-0.053220062	0.51308187	0.030608998	0.016761175	0.10590893	0.40058207	-0.15061784	0.55978625	0.45549232	0.066603718	0.12539667	0.37023033	-0.031911435	0.54568177	0.46305504	-0.059966261	0.23221343	0.76603968	-0.20509164	0.3780473	0.81541238	0.15365075	0.32481492	0.86174115	-0.18060972	0.4052446	0.89448403	0.056935585	0.18047805	0.89214283	0.0091105895	0.3379017	1.3430963	-0.20217097	0.33961412	1.3355568	0.12266534	0.25402112	1.3789113	-0.044983233	0.33882183	0.99263507	-0.25318917	0.14686867	1.047481	0.1348423	0.5763731	0.92829925	-0.20667219	0.13481952	0.82358377	0.21952344
305	1.216	-0.0093835376	-0.0072947395	-0.068648994	0.70400069	0.039881175	-0.01287066	-0.10997929	0.082042929	-0.10349794	0.57190812	0.056755481	0.051323131	-0.083782122	0.10142143	-0.02577217	0.5726996	0.081773099	-0.035855595	-0.17252114	0.093816605	-0.054498342	0.51328643	0.030632092	0.016600342	0.11239931	0.40103298	-0.15134663	0.56461882	0.45576818	0.065272042	0.13177219	0.37015894	-0.032776156	0.55077012	0.46436896	-0.061157873	0.23932012	0.76606982	-0.20529843	0.38402693	0.81641588	0.15388946	0.33211859	0.86169331	-0.18001458	0.4119166	0.89591865	0.057427366	0.1872531	0.89239508	0.0081812687	0.34403835	1.3440801	-0.20159284	0.34658295	1.3362007	0.12306578	0.26034793	1.3795542	-0.04427828	0.34434701	0.99372795	-0.25282204	0.15452482	1.0476109	0.13526158	0.58132385	0.92801879	-0.20569002	0.14282545	0.82369628	0.21980982
306	1.22	-0.00842684	-0.0071873875	-0.068980648	0.70437252	0.039605545	-0.013304509	-0.10654865	0.084770519	-0.10500887	0.57195156	0.056818061	0.050839421	-0.079568138	0.10352427	-0.02760441	0.5728969	0.08134326	-0.03642809	-0.1682014	0.098082498	-0.055685985	0.51336614	0.03059443	0.016379837	0.11917239	0.40147002	-0.15217762	0.56906258	0.45585048	0.063977622	0.13858459	0.37013027	-0.033918288	0.55522159	0.46538807	-0.062396642	0.24687532	0.7662165	-0.2059165	0.38982235	0.81750251	0.15404563	0.33951127	0.86171378	-0.17936771	0.41876829	0.89745067	0.058011869	0.19397478	0.89279573	0.0072491201	0.35018328	1.3451293	-0.20098942	0.35350423	1.3369629	0.1234835	0.26664513	1.3802952	-0.043553224	0.34981988	0.99487265	-0.25249657	0.16216133	1.0477006	0.13560901	0.58618172	0.9276891	-0.20474456	0.15100157	0.82387451	0.22018259
307	1.224	-0.0073152229	-0.0070979613	-0.069312402	0.70453335	0.039427494	-0.013732624	-0.10279271	0.087537693	-0.10654143	0.57187843	0.05686011	0.05038559	-0.07492389	0.10559404	-0.029511508	0.57292265	0.080898633	-0.036938658	-0.16341627	0.10244774	-0.056770832	0.51336143	0.030514865	0.016181171	0.12632575	0.4018914	-0.15315836	0.57313148	0.45573624	0.062700094	0.14578798	0.37009352	-0.03523345	0.559087	0.4660731	-0.063660013	0.25456123	0.76641009	-0.20661666	0.39540079	0.81875755	0.15416961	0.34695559	0.86181137	-0.17868311	0.42579345	0.89905472	0.058678754	0.20064438	0.8933913	0.0063466332	0.35633855	1.3462522	-0.2003592	0.36036558	1.3378444	0.12390524	0.27291281	1.381122	-0.042798137	0.35524529	0.99607275	-0.25220135	0.16986723	1.0477463	0.13597138	0.59095736	0.92732605	-0.20383773	0.15937894	0.82413097	0.2206746
308	1.228	-0.0060303723	-0.007059759	-0.069646731	0.70459205	0.039299615	-0.014084938	-0.098690546	0.090307345	-0.10810296	0.57180224	0.05684154	0.05001106	-0.069829274	0.10762381	-0.031455579	0.57286838	0.080472811	-0.037341123	-0.15813623	0.1068713	-0.057773275	0.51332429	0.030418991	0.016064854	0.13386685	0.40230827	-0.15426943	0.5768687	0.45544174	0.061436874	0.15335977	0.36997368	-0.036647184	0.56242852	0.46642212	-0.06494613	0.26208622	0.76661098	-0.20708953	0.40098026	0.82007375	0.15425746	0.35441936	0.86199743	-0.17797233	0.43291618	0.90069143	0.059377441	0.20728048	0.89418737	0.0054882379	0.36249455	1.3474555	-0.19970474	0.36716119	1.3388416	0.12432555	0.27915209	1.3820286	-0.042020127	0.36063925	0.997361	-0.25190224	0.17772179	1.0477945	0.13637629	0.59565582	0.92694341	-0.20297205	0.16794327	0.82446425	0.22127227
309	1.232	-0.0045634384	-0.0071074107	-0.069983882	0.70464148	0.039189841	-0.014318395	-0.094220002	0.093042665	-0.10969632	0.57181107	0.056756482	0.049745386	-0.064279815	0.10960686	-0.033398889	0.57282526	0.080080314	-0.037630739	-0.15235072	0.11131445	-0.058730964	0.51329841	0.030333658	0.016050906	0.14176657	0.40272982	-0.15549353	0.58035203	0.45499786	0.060210014	0.16130058	0.36969787	-0.038109751	0.56531686	0.46645027	-0.066291398	0.26936211	0.76681925	-0.20725312	0.40686388	0.82130761	0.15431846	0.36187888	0.86228644	-0.17723998	0.44000545	0.90232068	0.060023993	0.21383201	0.8952001	0.0047280241	0.36863283	1.3487431	-0.19903918	0.37388594	1.3399483	0.12474851	0.28537131	1.3830219	-0.041261641	0.36600867	0.99876318	-0.25157201	0.18570567	1.0479133	0.13666785	0.60027705	0.9265477	-0.20214601	0.17667458	0.82486774	0.22195256
310	1.236	-0.0029318497	-0.0072700101	-0.070319894	0.70472493	0.039089487	-0.01444887	-0.089353117	0.095708537	-0.11130734	0.57194747	0.056634189	0.049596434	-0.058293306	0.11152276	-0.035329688	0.57283641	0.079725296	-0.037834529	-0.14606725	0.1157513	-0.059679941	0.51330751	0.030280671	0.016123204	0.14999092	0.40315017	-0.15682469	0.583659	0.45443236	0.059033144	0.16962601	0.36921647	-0.039587048	0.56783921	0.46617364	-0.06768622	0.27647075	0.76705418	-0.20722209	0.41327693	0.82241815	0.15444987	0.36931678	0.86268882	-0.17648605	0.4469733	0.9039153	0.060562367	0.22023012	0.89644343	0.0041281109	0.37474441	1.3501158	-0.19837281	0.38053242	1.3411601	0.12517768	0.29158494	1.3841112	-0.040587713	0.3713398	1.0002736	-0.25120666	0.19370694	1.0481682	0.13665281	0.60481855	0.9261428	-0.20135813	0.18556728	0.8253402	0.22270826
